<mxfile host="app.diagrams.net" modified="2023-08-30T03:14:12.436Z" agent="Mozilla/5.0 (X11; Linux x86_64) AppleWebKit/537.36 (KHTML, like Gecko) Chrome/115.0.0.0 Safari/537.36" etag="GeU394KARw_1NMCzXmuz" version="21.6.9" type="github">
  <diagram name="Page-1" id="cP4HQzPJ9N6_ltwbS-ef">
    <mxGraphModel dx="682" dy="439" grid="1" gridSize="10" guides="1" tooltips="1" connect="1" arrows="1" fold="1" page="1" pageScale="1" pageWidth="827" pageHeight="1169" math="0" shadow="0">
      <root>
        <mxCell id="0" />
        <mxCell id="1" parent="0" />
        <mxCell id="1hKFzPxjXMCd9B1tTVk4-3" style="edgeStyle=orthogonalEdgeStyle;rounded=0;orthogonalLoop=1;jettySize=auto;html=1;exitX=0;exitY=0;exitDx=120;exitDy=95;exitPerimeter=0;entryX=0.5;entryY=0;entryDx=0;entryDy=0;" edge="1" parent="1" source="1hKFzPxjXMCd9B1tTVk4-1" target="1hKFzPxjXMCd9B1tTVk4-2">
          <mxGeometry relative="1" as="geometry" />
        </mxCell>
        <mxCell id="1hKFzPxjXMCd9B1tTVk4-1" value="&lt;font style=&quot;font-size: 36px;&quot; color=&quot;#ffffff&quot;&gt;sso&lt;/font&gt;" style="verticalAlign=top;align=center;spacingTop=8;spacingLeft=2;spacingRight=12;shape=cube;size=10;direction=south;fontStyle=4;html=1;whiteSpace=wrap;fillColor=#000000;strokeColor=#FFFFFF;" vertex="1" parent="1">
          <mxGeometry x="160" y="220" width="180" height="120" as="geometry" />
        </mxCell>
        <mxCell id="1hKFzPxjXMCd9B1tTVk4-2" value="" style="shape=datastore;whiteSpace=wrap;html=1;strokeColor=#FFFFFF;fillColor=#000000;" vertex="1" parent="1">
          <mxGeometry x="215" y="380" width="60" height="60" as="geometry" />
        </mxCell>
        <mxCell id="1hKFzPxjXMCd9B1tTVk4-4" value="&lt;font style=&quot;font-size: 36px;&quot; color=&quot;#ffffff&quot;&gt;sso&lt;/font&gt;" style="verticalAlign=top;align=center;spacingTop=8;spacingLeft=2;spacingRight=12;shape=cube;size=10;direction=south;fontStyle=4;html=1;whiteSpace=wrap;fillColor=#000000;strokeColor=#FFFFFF;" vertex="1" parent="1">
          <mxGeometry x="430" y="110" width="180" height="120" as="geometry" />
        </mxCell>
      </root>
    </mxGraphModel>
  </diagram>
</mxfile>
